<?xml version="1.0" encoding="UTF-8" standalone="no"?>
<svg
   xmlns:dc="http://purl.org/dc/elements/1.1/"
   xmlns:cc="http://creativecommons.org/ns#"
   xmlns:rdf="http://www.w3.org/1999/02/22-rdf-syntax-ns#"
   xmlns:svg="http://www.w3.org/2000/svg"
   xmlns="http://www.w3.org/2000/svg"
   xmlns:sodipodi="http://sodipodi.sourceforge.net/DTD/sodipodi-0.dtd"
   xmlns:inkscape="http://www.inkscape.org/namespaces/inkscape"
   viewBox="0 0 24 24"
   version="1.1"
   id="svg14"
   sodipodi:docname="lc_freeemiumlock.svg"
   inkscape:version="1.0.1 (3bc2e813f5, 2020-09-07)">
  <metadata
     id="metadata20">
    <rdf:RDF>
      <cc:Work
         rdf:about="">
        <dc:format>image/svg+xml</dc:format>
        <dc:type
           rdf:resource="http://purl.org/dc/dcmitype/StillImage" />
        <dc:title></dc:title>
      </cc:Work>
    </rdf:RDF>
  </metadata>
  <defs
     id="defs18" />
  <sodipodi:namedview
     pagecolor="#ffffff"
     bordercolor="#666666"
     borderopacity="1"
     objecttolerance="10"
     gridtolerance="10"
     guidetolerance="10"
     inkscape:pageopacity="0"
     inkscape:pageshadow="2"
     inkscape:window-width="1920"
     inkscape:window-height="1015"
     id="namedview16"
     showgrid="false"
     inkscape:zoom="29.791667"
     inkscape:cx="12"
     inkscape:cy="12"
     inkscape:window-x="1920"
     inkscape:window-y="0"
     inkscape:window-maximized="1"
     inkscape:current-layer="svg14" />
  <path
     d="m12 2a5 5 0 0 0 -5 5v5h-2c-.554 0-1 .446-1 1v8c0 .554.446 1 1 1h14c.554 0 1-.446 1-1v-8c0-.554-.446-1-1-1h-2v-5a5 5 0 0 0 -5-5zm0 1a4 4 0 0 1 4 4v5h-8v-5a4 4 0 0 1 4-4zm-7 10h1 12 1v1 6 1h-1-12-1v-1-6z"
     fill="#ed8733"
     id="path2"
     style="fill:#000000" />
  <path
     d="m5 13h14v8h-14z"
     fill="#f8db8f"
     id="path4"
     style="fill:#4d4d4d" />
  <path
     d="m12 14a2 2 0 0 0 -2 2v3c0 .554.446 1 1 1h1c.554 0 1-.446 1-1v-1.271484a2 2 0 0 0 1-1.728516 2 2 0 0 0 -2-2z"
     fill="#ed8733"
     id="path6"
     style="fill:#000000" />
  <g
     fill="#fafafa"
     id="g12">
    <circle
       cx="12"
       cy="16"
       r="1"
       id="circle8" />
    <rect
       height="3"
       ry=".000052"
       width="1"
       x="11"
       y="16"
       id="rect10" />
  </g>
</svg>
